<svg xmlns="http://www.w3.org/2000/svg" viewBox="0 0 200 200">
  <rect width="200" height="200" rx="24" fill="#1a1410"/>
  <!-- Outer lotus petals (16) -->
  <g stroke="#c4a57b" stroke-width="1.8" fill="none">
    <path d="M100,3 C87,9 87,17 100,22 C113,17 113,9 100,3Z"/>
    <path d="M100,3 C87,9 87,17 100,22 C113,17 113,9 100,3Z" transform="rotate(22.5,100,100)"/>
    <path d="M100,3 C87,9 87,17 100,22 C113,17 113,9 100,3Z" transform="rotate(45,100,100)"/>
    <path d="M100,3 C87,9 87,17 100,22 C113,17 113,9 100,3Z" transform="rotate(67.5,100,100)"/>
    <path d="M100,3 C87,9 87,17 100,22 C113,17 113,9 100,3Z" transform="rotate(90,100,100)"/>
    <path d="M100,3 C87,9 87,17 100,22 C113,17 113,9 100,3Z" transform="rotate(112.5,100,100)"/>
    <path d="M100,3 C87,9 87,17 100,22 C113,17 113,9 100,3Z" transform="rotate(135,100,100)"/>
    <path d="M100,3 C87,9 87,17 100,22 C113,17 113,9 100,3Z" transform="rotate(157.5,100,100)"/>
    <path d="M100,3 C87,9 87,17 100,22 C113,17 113,9 100,3Z" transform="rotate(180,100,100)"/>
    <path d="M100,3 C87,9 87,17 100,22 C113,17 113,9 100,3Z" transform="rotate(202.5,100,100)"/>
    <path d="M100,3 C87,9 87,17 100,22 C113,17 113,9 100,3Z" transform="rotate(225,100,100)"/>
    <path d="M100,3 C87,9 87,17 100,22 C113,17 113,9 100,3Z" transform="rotate(247.5,100,100)"/>
    <path d="M100,3 C87,9 87,17 100,22 C113,17 113,9 100,3Z" transform="rotate(270,100,100)"/>
    <path d="M100,3 C87,9 87,17 100,22 C113,17 113,9 100,3Z" transform="rotate(292.5,100,100)"/>
    <path d="M100,3 C87,9 87,17 100,22 C113,17 113,9 100,3Z" transform="rotate(315,100,100)"/>
    <path d="M100,3 C87,9 87,17 100,22 C113,17 113,9 100,3Z" transform="rotate(337.5,100,100)"/>
  </g>
  <!-- Double circle band -->
  <circle cx="100" cy="100" r="78" stroke="#c4a57b" stroke-width="3" fill="none"/>
  <circle cx="100" cy="100" r="73" stroke="#c4a57b" stroke-width="2.5" fill="none"/>
  <!-- Inner lotus petals (16) -->
  <g stroke="#c4a57b" stroke-width="1.4" fill="none">
    <path d="M100,28 C91,33 91,39 100,44 C109,39 109,33 100,28Z"/>
    <path d="M100,28 C91,33 91,39 100,44 C109,39 109,33 100,28Z" transform="rotate(22.5,100,100)"/>
    <path d="M100,28 C91,33 91,39 100,44 C109,39 109,33 100,28Z" transform="rotate(45,100,100)"/>
    <path d="M100,28 C91,33 91,39 100,44 C109,39 109,33 100,28Z" transform="rotate(67.5,100,100)"/>
    <path d="M100,28 C91,33 91,39 100,44 C109,39 109,33 100,28Z" transform="rotate(90,100,100)"/>
    <path d="M100,28 C91,33 91,39 100,44 C109,39 109,33 100,28Z" transform="rotate(112.5,100,100)"/>
    <path d="M100,28 C91,33 91,39 100,44 C109,39 109,33 100,28Z" transform="rotate(135,100,100)"/>
    <path d="M100,28 C91,33 91,39 100,44 C109,39 109,33 100,28Z" transform="rotate(157.5,100,100)"/>
    <path d="M100,28 C91,33 91,39 100,44 C109,39 109,33 100,28Z" transform="rotate(180,100,100)"/>
    <path d="M100,28 C91,33 91,39 100,44 C109,39 109,33 100,28Z" transform="rotate(202.5,100,100)"/>
    <path d="M100,28 C91,33 91,39 100,44 C109,39 109,33 100,28Z" transform="rotate(225,100,100)"/>
    <path d="M100,28 C91,33 91,39 100,44 C109,39 109,33 100,28Z" transform="rotate(247.5,100,100)"/>
    <path d="M100,28 C91,33 91,39 100,44 C109,39 109,33 100,28Z" transform="rotate(270,100,100)"/>
    <path d="M100,28 C91,33 91,39 100,44 C109,39 109,33 100,28Z" transform="rotate(292.5,100,100)"/>
    <path d="M100,28 C91,33 91,39 100,44 C109,39 109,33 100,28Z" transform="rotate(315,100,100)"/>
    <path d="M100,28 C91,33 91,39 100,44 C109,39 109,33 100,28Z" transform="rotate(337.5,100,100)"/>
  </g>
  <!-- Inner circle -->
  <circle cx="100" cy="100" r="55" stroke="#c4a57b" stroke-width="2" fill="none"/>
  <!-- Central octagram star -->
  <rect x="66" y="66" width="68" height="68" stroke="#c4a57b" stroke-width="2" fill="none"/>
  <rect x="66" y="66" width="68" height="68" stroke="#c4a57b" stroke-width="2" fill="none" transform="rotate(45,100,100)"/>
  <!-- Cross lines -->
  <line x1="100" y1="52" x2="100" y2="148" stroke="#c4a57b" stroke-width="1.5"/>
  <line x1="52" y1="100" x2="148" y2="100" stroke="#c4a57b" stroke-width="1.5"/>
  <line x1="66" y1="66" x2="134" y2="134" stroke="#c4a57b" stroke-width="1.5"/>
  <line x1="134" y1="66" x2="66" y2="134" stroke="#c4a57b" stroke-width="1.5"/>
  <!-- Inner diamond -->
  <rect x="82" y="82" width="36" height="36" stroke="#c4a57b" stroke-width="1.5" fill="none" transform="rotate(45,100,100)"/>
  <!-- Inner small square -->
  <rect x="88" y="88" width="24" height="24" stroke="#c4a57b" stroke-width="1.5" fill="none"/>
  <!-- Center dot -->
  <circle cx="100" cy="100" r="3" fill="#c4a57b"/>
</svg>
